<mxfile host="app.diagrams.net" modified="2020-12-14T03:33:28.868Z" agent="5.0 (Macintosh; Intel Mac OS X 10_15_7) AppleWebKit/537.36 (KHTML, like Gecko) Chrome/87.0.4280.88 Safari/537.36" etag="s8cvO7AiXmgGYJmT7hDX" version="14.0.1" type="github">
  <diagram id="KyBDniP_y2kUucrslw4d" name="Page-1">
    <mxGraphModel dx="1354" dy="770" grid="1" gridSize="10" guides="1" tooltips="1" connect="1" arrows="1" fold="1" page="1" pageScale="1" pageWidth="827" pageHeight="1169" math="0" shadow="0">
      <root>
        <mxCell id="0" />
        <mxCell id="1" parent="0" />
        <mxCell id="i7SVW_03Tz9y9Qvsz7go-5" value="" style="edgeStyle=orthogonalEdgeStyle;rounded=0;orthogonalLoop=1;jettySize=auto;html=1;" edge="1" parent="1" source="i7SVW_03Tz9y9Qvsz7go-1" target="i7SVW_03Tz9y9Qvsz7go-4">
          <mxGeometry relative="1" as="geometry" />
        </mxCell>
        <mxCell id="i7SVW_03Tz9y9Qvsz7go-1" value="&lt;font style=&quot;font-size: 14px&quot;&gt;&lt;b&gt;构建&lt;br&gt;&lt;/b&gt;&lt;/font&gt;&lt;font face=&quot;Courier New&quot; style=&quot;font-size: 12px&quot;&gt;开发者本地使用ks build进行打包并提交到远程仓库&lt;/font&gt;" style="rounded=1;whiteSpace=wrap;html=1;" vertex="1" parent="1">
          <mxGeometry x="350" y="370" width="170" height="70" as="geometry" />
        </mxCell>
        <mxCell id="i7SVW_03Tz9y9Qvsz7go-7" value="" style="edgeStyle=orthogonalEdgeStyle;rounded=0;orthogonalLoop=1;jettySize=auto;html=1;" edge="1" parent="1" source="i7SVW_03Tz9y9Qvsz7go-2" target="i7SVW_03Tz9y9Qvsz7go-3">
          <mxGeometry relative="1" as="geometry" />
        </mxCell>
        <mxCell id="i7SVW_03Tz9y9Qvsz7go-2" value="&lt;div style=&quot;line-height: 1.75 ; font-size: 14px&quot;&gt;&lt;span style=&quot;color: rgb(57 , 57 , 57)&quot;&gt;&lt;b&gt;发布到gamma&lt;/b&gt;&lt;/span&gt;&lt;/div&gt;&lt;div style=&quot;text-align: left ; line-height: 1.75&quot;&gt;&lt;span style=&quot;color: rgb(57 , 57 , 57)&quot;&gt;&lt;font style=&quot;font-size: 12px&quot; face=&quot;Courier New&quot;&gt;(在智能运维平台上“Gamma发布”模块，根据测试环境输出的压缩包名进行发布)&lt;/font&gt;&lt;/span&gt;&lt;/div&gt;" style="rounded=1;whiteSpace=wrap;html=1;" vertex="1" parent="1">
          <mxGeometry x="315" y="630" width="240" height="90" as="geometry" />
        </mxCell>
        <mxCell id="i7SVW_03Tz9y9Qvsz7go-3" value="&lt;div style=&quot;line-height: 1.75 ; font-size: 14px&quot;&gt;&lt;span style=&quot;color: rgb(57 , 57 , 57)&quot;&gt;&lt;b&gt;发布到生产&lt;/b&gt;&lt;/span&gt;&lt;/div&gt;&lt;div style=&quot;line-height: 1.75&quot;&gt;&lt;span style=&quot;color: rgb(57 , 57 , 57)&quot;&gt;&lt;font face=&quot;Courier New&quot; style=&quot;font-size: 12px&quot;&gt;(在智能运维平台上“生产发布”模块，根据测试环境输出的压缩包名进行发布)&lt;/font&gt;&lt;/span&gt;&lt;/div&gt;" style="rounded=1;whiteSpace=wrap;html=1;" vertex="1" parent="1">
          <mxGeometry x="317.5" y="770" width="235" height="70" as="geometry" />
        </mxCell>
        <mxCell id="i7SVW_03Tz9y9Qvsz7go-6" value="" style="edgeStyle=orthogonalEdgeStyle;rounded=0;orthogonalLoop=1;jettySize=auto;html=1;" edge="1" parent="1" source="i7SVW_03Tz9y9Qvsz7go-4" target="i7SVW_03Tz9y9Qvsz7go-2">
          <mxGeometry relative="1" as="geometry" />
        </mxCell>
        <mxCell id="i7SVW_03Tz9y9Qvsz7go-4" value="&lt;div style=&quot;line-height: 1.75 ; font-size: 14px&quot;&gt;&lt;span style=&quot;color: rgb(57 , 57 , 57)&quot;&gt;&lt;b&gt;发布到测试&lt;/b&gt;&lt;/span&gt;&lt;/div&gt;&lt;div style=&quot;text-align: left ; line-height: 1.75&quot;&gt;&lt;span style=&quot;color: rgb(57 , 57 , 57)&quot;&gt;&lt;font face=&quot;Courier New&quot; style=&quot;font-size: 12px&quot;&gt;(在智能运维平台上“H5-Test发布”模块，这一步会将代码同步到测试环境服务器中，同时会保存一份打包后的压缩包)&lt;/font&gt;&lt;/span&gt;&lt;/div&gt;" style="rounded=1;whiteSpace=wrap;html=1;" vertex="1" parent="1">
          <mxGeometry x="315" y="480" width="240" height="105" as="geometry" />
        </mxCell>
      </root>
    </mxGraphModel>
  </diagram>
</mxfile>
